<svg xmlns="http://www.w3.org/2000/svg" width="60" height="48" fill="none" viewBox="0 0 60 48">
  <path fill="#5EEAD4" d="M26.011 40.066V.056h7.753l.225 18.848L50.506 0h8.539L43.764 17.776 60 40.066h-8.764L38.82 22.798l-4.831 5.135-.225 12.133h-7.753Z"/>
  <path fill="#5EEAD4" d="M33.989 40.066V.056h-7.753l-.225 18.848L9.494 0H.955l15.281 17.776L0 40.066h8.764L21.18 22.798l4.831 5.135.225 12.133h7.753Z"/>
  <path fill="#949494" fill-opacity=".58" d="M2.847 47.966v-4.808h1.625c.508 0 .93.109 1.267.325.342.213.598.501.769.867.17.361.256.763.256 1.205 0 .488-.094.912-.283 1.273a1.98 1.98 0 0 1-.796.84c-.341.199-.746.298-1.213.298H2.847Zm3.445-2.41c0-.384-.072-.725-.216-1.023a1.594 1.594 0 0 0-.613-.698c-.27-.171-.6-.257-.991-.257H3.319v3.968h1.153c.395 0 .728-.088.998-.264.27-.176.474-.413.613-.71a2.4 2.4 0 0 0 .21-1.017Zm6.646 1.99v.42H9.723v-4.808h3.155v.42h-2.684v1.734h2.34v.4h-2.34v1.834h2.744Zm2.929-4.388 1.712 4.219 1.706-4.219h.492l-1.982 4.808h-.432l-1.989-4.808h.493Zm9.867 4.388v.42H22.52v-4.808h3.155v.42H22.99v1.734h2.339v.4h-2.34v1.834h2.744Zm2.949.42v-4.808h.472v4.388h2.764v.42h-3.236Zm7.724.034c-.337 0-.643-.068-.917-.203a2.217 2.217 0 0 1-.708-.549 2.645 2.645 0 0 1-.458-.785 2.592 2.592 0 0 1 .006-1.815c.113-.293.27-.553.472-.779.207-.23.447-.41.721-.541.275-.136.571-.204.89-.204.338 0 .643.07.917.21.274.14.508.328.701.562.198.235.351.497.459.786a2.552 2.552 0 0 1-.479 2.587c-.202.225-.44.404-.714.535-.275.13-.571.196-.89.196Zm-1.773-2.438c0 .262.042.515.128.759.085.239.206.453.364.643.157.185.344.334.56.447.22.108.46.162.72.162.275 0 .52-.056.736-.169a1.8 1.8 0 0 0 .56-.46c.156-.195.276-.411.356-.65a2.268 2.268 0 0 0-.006-1.483 2.037 2.037 0 0 0-.371-.644 1.728 1.728 0 0 0-.56-.447 1.569 1.569 0 0 0-.714-.162c-.27 0-.515.056-.735.17a1.77 1.77 0 0 0-.56.46 2.19 2.19 0 0 0-.357.643c-.08.24-.121.483-.121.731Zm6.963 2.404v-4.808h1.983c.206 0 .395.043.566.129.175.086.326.203.451.352.126.144.225.307.297.488.072.176.108.356.108.541 0 .262-.058.51-.175.745a1.45 1.45 0 0 1-.479.562 1.24 1.24 0 0 1-.728.217h-1.55v1.774h-.473Zm.472-2.194h1.53a.8.8 0 0 0 .493-.156c.14-.103.247-.239.324-.406.076-.167.114-.348.114-.542a1.14 1.14 0 0 0-.135-.548 1.04 1.04 0 0 0-.357-.393.823.823 0 0 0-.479-.149h-1.49v2.194Zm8.994 1.774v.42h-3.216v-4.808h3.155v.42H48.32v1.734h2.34v.4h-2.34v1.834h2.744Zm2.949.42v-4.808h2.022c.207 0 .396.043.566.129.171.086.32.203.445.352.13.144.23.307.297.488.072.176.108.356.108.541 0 .23-.045.447-.135.65a1.373 1.373 0 0 1-.37.515 1.2 1.2 0 0 1-.56.278l1.173 1.855h-.533L55.9 46.192h-1.415v1.774h-.472Zm.472-2.194h1.564a.801.801 0 0 0 .492-.156c.14-.103.247-.239.324-.406.076-.172.114-.352.114-.542 0-.194-.045-.372-.135-.535a1.042 1.042 0 0 0-.35-.4.81.81 0 0 0-.486-.155h-1.523v2.194Z"/>
</svg>
